<?xml version="1.0" encoding="UTF-8"?>
<svg version="1.1" viewBox="0 0 1500 1500" width="1280" height="1280" xmlns="http://www.w3.org/2000/svg">
<path transform="translate(0)" d="m0 0h1500v1500h-1500z" fill="#FDFAF1"/>
<path transform="translate(736,355)" d="m0 0h21l9 4 8 7 8 11 9 19 17 48 5 21 5 31 2 17 1 18v13l8-7 15-13 14-11 24-16 17-10 13-6 3-1 14-1 13 2 10 6 7 8 5 10v20l-6 29-8 30-6 16-13 28-8 15-9 14-7 10 67 1 12 3 11 7 7 9 3 8v15l-4 11-7 10-24 24-11 9-15 12-21 14-26 14-18 8-34 12-22 5-35 5-8 1-6 11-6 7-8 5-9 2h-10l-15-2-8-5-7-8-3-9v-2l-21-2-27-4-24-6-34-12-36-18-18-12-13-10-13-11-10-9-14-14-10-15-4-9-1-3v-13l4-11 6-8 10-6 14-3h65l-5-9-10-15-13-24-7-17-12-37-6-24-2-12v-25l4-10 9-10 10-5 14-1 12 2 12 5 20 11 18 12 14 10 14 12 14 13 1-2v-21l3-27 5-27 10-35 8-23 7-19 7-16 8-10 9-6z" fill="#CEE5BD"/>
<path transform="translate(736,355)" d="m0 0h21l9 4 8 7 8 11 9 19 17 48 5 21 5 31 2 17 1 18v13l8-7 15-13 14-11 24-16 17-10 13-6 3-1 14-1 13 2 10 6 7 8 5 10v20l-6 29-8 30-6 16-13 28-8 15-9 14-7 10 67 1 12 3 11 7 7 9 3 8v15l-4 11-7 10-24 24-11 9-15 12-21 14-26 14-18 8-34 12-22 5-35 5-8 1-6 11-6 7-8 5-9 2h-10l-15-2-8-5-7-8-3-9v-2l-21-2-27-4-24-6-34-12-36-18-18-12-13-10-13-11-10-9-14-14-10-15-4-9-1-3v-13l4-11 6-8 10-6 14-3h65l-5-9-10-15-13-24-7-17-12-37-6-24-2-12v-25l4-10 9-10 10-5 14-1 12 2 12 5 20 11 18 12 14 10 14 12 14 13 1-2v-21l3-27 5-27 10-35 8-23 7-19 7-16 8-10 9-6zm6 18-6 4-6 8-7 16-13 35-7 27-5 24-3 22-1 13v66l1 16 3 11h-2l-2-5-5-10-7-11-11-14-11-12-18-18-11-9-18-14-15-9-19-11-12-4h-7l-6 4-3 5v15l4 20 8 27 8 24 9 20 12 22 17 25 22 28 7 8-10-3-24-4-16-2h-69l-7 3-4 6v7l4 8 11 13 8 8 8 7 16 13 14 10 13 8 21 11 25 10 24 7 25 6 37 5 18 1 1 22 1 1h23l1-1v-21l26-2 28-4 25-6 24-7 22-9 21-10 16-10 16-11 12-10 8-7 15-14 9-10 4-7v-8l-6-7-7-2-17-1h-35l-27 2-37 6-2 1 7-8 11-14 12-15 13-19 8-13 7-12 14-32 7-21 6-26 3-17v-12l-5-6-4-2h-8l-12 5-18 10-14 9-14 10-10 8-13 12-18 18-13 17-16 24v2h-2l2-9 2-30v-46l-2-26-4-30-5-21-15-44-8-18-6-11-5-4-3-1z" fill="#434E3F"/>
<path transform="translate(745,412)" d="m0 0h2l6 12 8 24 8 33 4 25 1 13v55l-3 33-6 40-8 39-6 20-4 10h-3l-3-9-8-28-5-22-6-39-3-30-1-21v-23l2-33 4-30 5-23 12-36z" fill="#509A58"/>
<path transform="translate(579,531)" d="m0 0 10 5 20 14 11 9 12 11 14 14 11 14 11 15 8 13 8 14 8 16 12 28 15 46 1 4v7l-5-2-12-11-14-14-7-6v-2l-4-2-8-8-7-8-11-12-9-11-13-17-10-15-13-22-12-25-8-21-6-21-2-8z" fill="#509A58"/>
<path transform="translate(912,531)" d="m0 0h2l-3 14-11 32-14 29-8 14-16 24-8 11-11 14-11 13-9 11-44 44-5 3h-3l1-10 8-27 6-17 11-28 12-23 10-16 12-17 9-11 9-10 10-11 8-7 14-12 16-11 13-8z" fill="#509A58"/>
<path transform="translate(544,708)" d="m0 0h30l23 2 20 4 30 10 21 11 17 11 14 12 18 18 5 7-1 3-16-1-22-3-25-6-21-7-30-13-23-13-14-10-17-14-9-9z" fill="#509A58"/>
<path transform="translate(940,708)" d="m0 0 7 1-2 4-13 11-17 13-24 15-23 11-23 9-20 6-29 6-18 2h-10l2-5 12-13 14-14 11-9 21-14 14-7 24-8 23-5 17-2z" fill="#509A58"/>
<path transform="translate(977,897)" d="m0 0 11 1 10 5 7 8 4 8 2 12-1 14-5 21-5 12-6 9-9 8-9 4-11 1-9-2-8-5-7-8-4-11-1-5v-8l5-25 6-15 6-9 6-7 10-6z" fill="#444F40"/>
<path transform="translate(778,884)" d="m0 0h45v12l-1 9-1 2-19 2-21 2-2 5-1 6 20-1h12l1 3v18l-1 1-31 3-2 1-1 11h41v22l-1 2-9 1-34 1h-23v-23l2-34 3-32 2-9 1-1z" fill="#434D40"/>
<path transform="translate(477,907)" d="m0 0h6l1 1 8 50 1 6v18l-4 13-9 10-8 5-10 3-13 1-9-2-8-7-5-11-4-19-2-17-1-24-1-16 15-3h8l8 64 4 8h7l5-4 1-2v-15l-7-54 2-2z" fill="#434D3F"/>
<path transform="translate(376,925)" d="m0 0h18l8 4 6 7 4 9 1 5v9l-3 4-17 4h-5l-2-19-1-2-5 1-4 7-2 9v16l3 14 4 8 1 3h8l6-5 7-17 4-1 11 7 1 1-1 8-5 12-7 9-7 6-10 4h-15l-10-5-8-9-7-14-3-12-1-14 2-14 5-14 6-10 7-6 8-4z" fill="#434D3F"/>
<path transform="translate(723,881)" d="m0 0 6 1 14 6 1 3-8 30-17 60-2 3-8 1h-17l-16-64-6-27-1-7 1-2 9-1h12l3 8 11 41 1 2 4-13 7-25 5-15z" fill="#444E40"/>
<path transform="translate(902,891)" d="m0 0h16l11 4 6 7 2 6v12l-1 7-1 1h-13l-9-2v-15l-6 1-2 3v10l5 5 9 8 5 4 6 9 2 6v9l-4 11-6 8-10 5-4 1h-14l-13-4-14-8-1-5 7-12 5-1 14 8 2 1h6l3-1v-9l-4-5-14-11-7-8-2-6v-12l4-11 7-9 8-5z" fill="#434D3F"/>
<path transform="translate(1029,909)" d="m0 0 12 1 42 6 6 2 1 2-5 19-7 1-33-2-4 15 30 4 2 1-1 12-3 9h-32l-3 8-4 19-1 2-14-1-10-3 1-10 12-50 9-32z" fill="#434D3F"/>
<path transform="translate(1097,921)" d="m0 0 10 1 49 11 10 3-1 8-3 11-3 2-19-3-3 8-10 35-5 16-4 14-2 1-21-5-1-4 7-26 11-42v-1l-22-2 1-10 5-16z" fill="#444E40"/>
<path transform="translate(616,888)" d="m0 0h14l1 6v15l-6 2-15 2 2 32v20l1 13v12l-2 1-9 1h-13l-1-7 1-9 1-2-1-13-3-1-2-34-1-8-11 3-11 2-1-1-1-14v-12l6-2z" fill="#434D3F"/>
<path transform="translate(512,900)" d="m0 0h7l1 1 6 64 1 5 34-4 2 3 2 23-4 2-55 10-2-1-5-52-4-43v-5l9-2z" fill="#434D3F"/>
<path transform="translate(656,884)" d="m0 0h8l2 4 1 75v23l-5 1-19 1-2-1-1-37v-38l1-26 1-1z" fill="#434F40"/>
<path transform="translate(979,918)" d="m0 0 5 1 2 3 1 10 2 1v2l-3 1-2 16-5 13-4 8-4 3h-6l-3-6v-10l4-19 6-15 5-7z" fill="#FCFAF0"/>
<path transform="translate(656,1027)" d="m0 0h7l5 2 1 1v17l-2 6-4 2-7 1-4-2v-2l11-1 3-4-10 1-5-3-3-7 2-6 3-4z" fill="#445241"/>
<path transform="translate(790,1027)" d="m0 0h8l5 2v21l-3 4-4 1h-9v-3l12-2 2-4-6 2h-7l-5-8 1-8 3-4z" fill="#435140"/>
<path transform="translate(561,1019)" d="m0 0h2v27l-6 2h-7l-5-5-1-9 3-5 7-2 6 1v-8z" fill="#445441"/>
<path transform="translate(933,1027)" d="m0 0h8l5 4 1 2v8l-4 6-2 1h-8l-5-6-1-8 4-6z" fill="#FCFAF0"/>
<path transform="translate(700,1027)" d="m0 0h7l5 4 1 3v7l-3 5-4 2h-7l-6-7v-8l4-5z" fill="#FBF9EE"/>
<path transform="translate(848,1027)" d="m0 0 9 1 4 5v8l-3 5-4 2h-7l-6-7v-7l4-6z" fill="#FBFAEF"/>
<path transform="translate(575,1027)" d="m0 0h7l5 3 2 5-1 8-4 4-2 1h-7l-6-7v-7l4-6z" fill="#FCFAEF"/>
<path transform="translate(790,1030)" d="m0 0h8l2 2v11l-5 2-7-1-2-5 1-7z" fill="#FBF9EF"/>
<path transform="translate(656,1030)" d="m0 0h7l3 5-1 9-9 1-4-3-1-7z" fill="#FCFAF0"/>
<path transform="translate(933,1027)" d="m0 0h8l5 4 1 2v8l-4 6-2 1h-8l-5-6-1-8 4-6zm1 3-4 4 1 8 3 3 7-1 3-2v-9l-4-3z" fill="#435140"/>
<path transform="translate(550,1031)" d="m0 0h9l1 1v12l-2 1h-7l-3-2-1-9z" fill="#FBF9EF"/>
<path transform="translate(575,1027)" d="m0 0h7l5 3 2 5-1 8-4 4-2 1h-7l-6-7v-7l4-6zm1 3-4 4v7l4 4 7-1 3-3v-6l-4-5z" fill="#445240"/>
<path transform="translate(700,1027)" d="m0 0h7l5 4 1 3v7l-3 5-4 2h-7l-6-7v-8l4-5zm0 3-4 4-1 4 3 5 3 2 7-1 2-3v-6l-2-4-2-1z" fill="#445341"/>
<path transform="translate(601,1027)" d="m0 0h8l5 4 1 2v9l-4 5-2 1h-8l-5-6v-10zm1 3-3 2-1 7 3 5 6 1 5-3v-9l-4-3z" fill="#435040"/>
<path transform="translate(848,1027)" d="m0 0 9 1 4 5v8l-3 5-4 2h-7l-6-7v-7l4-6zm0 3-4 4-1 4 3 6 2 1h6l4-4v-7l-4-4z" fill="#435040"/>
<path transform="translate(766,1027)" d="m0 0h7l3 2 1 5v13l-4-1v-15l-6-1-3 3v14l-4-1v-13l2-5z" fill="#434F40"/>
<path transform="translate(529,1027)" d="m0 0 7 1 2 3 1 15-4 1v-12l-1-3-2-1h-8v16l-4-1v-12l1-5z" fill="#445341"/>
<path transform="translate(961,1027)" d="m0 0h6l3 5 1 14-4 1v-12l-1-3-2-1h-6l-2 3v13h-3v-18l1-1z" fill="#445341"/>
<path transform="translate(980,1028)" d="m0 0h10l1 3-10-1v4l8 4 3 3-1 5-1 1-10 1-3-3v-2l4 1h7l-1-3-5-3-4-3v-5z" fill="#445341"/>
<path transform="translate(828,1027)" d="m0 0 7 1-1 4-7-1 1 4 7 3 1 7-1 2-10 1-2-1v-5l3 2h6v-4l-5-1-3-3-1-5 3-3z" fill="#455842"/>
<path transform="translate(880,1028)" d="m0 0h2l1 13 2 3h5l2-2v-14h3v16l-5 4h-6l-4-4-1-3v-12z" fill="#435140"/>
<path transform="translate(741,1028)" d="m0 0h2v8l-3 10h-4l-7-9v-6l5 3 3 5v2h2l1-12z" fill="#435140"/>
<path transform="translate(905,1022)" d="m0 0 2 1 2 5 2 2-3 1v8l1 6 3 1-1 2-5-1-3-16z" fill="#445742"/>
<path transform="translate(509,1020)" d="m0 0 3 1v26l-4-1z" fill="#434D3F"/>
<path transform="translate(630,1027)" d="m0 0h3v3l-8 1-1 17-3-1v-18l1-1z" fill="#455943"/>
<path transform="translate(683,1027)" d="m0 0h4v3l-7 2v15h-3l-1-5v-10l2-4z" fill="#465E44"/>
<path transform="translate(717,1028)" d="m0 0 4 1 4 10 3 4v4l-5-1-5-15z" fill="#435140"/>
<path transform="translate(868,1019)" d="m0 0h3l1 28h-3l-1-25z" fill="#445341"/>
<path transform="translate(766,1027)" d="m0 0 2 1-4 5v14l-4-1v-13l2-5z" fill="#445742"/>
<path transform="translate(1e3 953)" d="m0 0h2l1 5-2 2-2 12-3-1 1-8z" fill="#A8CCA4"/>
<path transform="translate(749,1028)" d="m0 0 3 1 1 17-4 1z" fill="#445241"/>
<path transform="translate(917,1029)" d="m0 0h3v17l-3 1z" fill="#445341"/>
<path transform="translate(644,888)" d="m0 0h4l-1 9-4 1z" fill="#F8F8EC"/>
</svg>
